<?xml version="1.0" encoding="utf-8"?>
<!-- Generator: Adobe Illustrator 23.1.1, SVG Export Plug-In . SVG Version: 6.00 Build 0)  -->
<svg version="1.1" id="Ebene_1" xmlns="http://www.w3.org/2000/svg" xmlns:xlink="http://www.w3.org/1999/xlink" x="0px" y="0px"
	 viewBox="0 0 256 256" style="enable-background:new 0 0 256 256;" xml:space="preserve">
<style type="text/css">
	.st0{fill:#4D99CF;}
	.st1{fill:#FFFFFF;}
	.st2{opacity:0.3;fill:#4D99CF;}
</style>
<rect y="0" class="st0" width="256" height="256"/>
<title>ext_icon_crawler_transparent2</title>
<path class="st1" d="M131.4,106.6l-11.5,11.5l-18.4-18.4c8.2-12.7,6.7-29.9-4.4-41c-12.8-12.8-33.7-12.8-46.5,0s-12.8,33.7,0,46.5
	c11.1,11.1,28.3,12.6,41,4.4L110,128l48.9,48.9l13.3,13.3c11.8,11.8,31,11.8,42.8,0L131.4,106.6z M60.5,95.3
	c-7.4-7.4-7.4-19.3,0-26.7c7.4-7.4,19.3-7.4,26.7,0c7.4,7.4,7.4,19.3,0,26.7S67.8,102.7,60.5,95.3z"/>
<path class="st1" d="M101.5,156.3l18.4-18.4l11.5,11.5L215,65.8l0,0c-11.8-11.8-31-11.8-42.8,0l-13.3,13.3L110,128l-18.4,18.4
	c-12.7-8.2-29.9-6.7-41,4.4c-12.8,12.8-12.8,33.7,0,46.5s33.7,12.8,46.5,0C108.2,186.2,109.7,169,101.5,156.3z M60.5,187.4
	c-7.4-7.4-7.4-19.3,0-26.7c7.4-7.4,19.3-7.4,26.7,0c7.4,7.4,7.4,19.3,0,26.7C79.8,194.8,67.9,194.8,60.5,187.4z"/>
<circle class="st0" cx="134.8" cy="128" r="7.8"/>
<g>
	<polygon class="st2" points="152.8,128 131.4,149.4 119.9,137.9 119.9,137.9 139.2,157.2 139.2,157.2 160.6,135.8 	"/>
	<polygon class="st2" points="110,128 110,128 131.4,106.6 131.4,106.6 119.9,118.1 112.1,110.3 102.2,120.2 102.2,120.2 110,128 	
		"/>
</g>
</svg>
